<?xml version="1.0" encoding="utf-8"?>
<!-- Generator: Adobe Illustrator 16.0.0, SVG Export Plug-In . SVG Version: 6.00 Build 0)  -->
<!DOCTYPE svg PUBLIC "-//W3C//DTD SVG 1.1//EN" "http://www.w3.org/Graphics/SVG/1.1/DTD/svg11.dtd">
<svg version="1.1" id="レイヤー_1" xmlns="http://www.w3.org/2000/svg" xmlns:xlink="http://www.w3.org/1999/xlink" x="0px"
	 y="0px" width="13.334px" height="15.996px" viewBox="0 0 13.334 15.996" enable-background="new 0 0 13.334 15.996"
	 xml:space="preserve">
<g>
	<path fill="#FAFAFA" d="M5.856,15.996H0.691c-0.271,0-0.521-0.146-0.625-0.396c-0.041-0.082-0.062-0.188-0.062-0.271
		c0-0.167,0.062-0.312,0.166-0.438l6.52-6.894L0.17,1.125C0.004,0.917-0.059,0.646,0.066,0.396C0.17,0.167,0.42,0,0.691,0h5.165
		c0.188,0,0.375,0.083,0.5,0.229l6.79,7.332c0.25,0.25,0.25,0.625,0,0.896l-6.79,7.332C6.231,15.913,6.044,15.996,5.856,15.996z"/>
</g>
</svg>
