<?xml version="1.0" encoding="utf-8"?>
<!-- Generator: Adobe Illustrator 16.0.0, SVG Export Plug-In . SVG Version: 6.00 Build 0)  -->
<!DOCTYPE svg PUBLIC "-//W3C//DTD SVG 1.1//EN" "http://www.w3.org/Graphics/SVG/1.1/DTD/svg11.dtd">
<svg version="1.1" id="レイヤー_1" xmlns="http://www.w3.org/2000/svg" xmlns:xlink="http://www.w3.org/1999/xlink" x="0px"
	 y="0px" width="13.336px" height="15.996px" viewBox="0 0 13.336 15.996" enable-background="new 0 0 13.336 15.996"
	 xml:space="preserve">
<g>
	<path fill="#FAFAFA" d="M7.482,0h5.166c0.271,0,0.521,0.167,0.625,0.396c0.041,0.083,0.062,0.188,0.062,0.271
		c0,0.167-0.062,0.333-0.188,0.458l-6.52,6.874l6.52,6.894c0.188,0.188,0.229,0.459,0.125,0.709
		c-0.104,0.25-0.354,0.396-0.625,0.396H7.482c-0.188,0-0.375-0.083-0.5-0.208l-6.81-7.333c-0.229-0.271-0.229-0.646,0-0.896
		l6.811-7.332C7.107,0.083,7.295,0,7.482,0z"/>
</g>
</svg>
